<svg version="1.1" id="Layer_1" xmlns="http://www.w3.org/2000/svg" xmlns:xlink="http://www.w3.org/1999/xlink" x="0px" y="0px"
	 width="100%" viewBox="0 0 736 980" enable-background="new 0 0 736 980" xml:space="preserve">
<path fill="#010101" opacity="1.000000" stroke="none" 
	d="
M211.000000,981.000000 
	C201.645767,981.000000 192.291550,981.000000 182.175598,980.701904 
	C180.443008,980.270081 179.472183,980.020325 178.501236,980.019836 
	C158.980438,980.010010 139.459641,980.028931 119.476013,980.038818 
	C113.204010,980.013916 107.392143,979.880066 101.586777,980.018372 
	C98.718353,980.086731 95.861885,980.656921 93.000000,981.000000 
	C81.979103,981.000000 70.958214,981.000000 59.289978,980.602295 
	C55.817760,980.088867 52.991398,979.847046 50.168278,979.880310 
	C40.177483,979.998169 31.825369,976.123779 24.253893,969.870300 
	C16.048389,963.093201 9.388818,955.092712 4.528553,945.675720 
	C3.225478,943.151001 2.267346,940.110657 2.259916,937.304077 
	C2.079605,869.197693 2.054299,801.090881 1.986346,732.984192 
	C1.978707,725.327637 1.883105,717.671204 1.913007,709.551880 
	C1.942329,690.065735 1.886939,671.042419 1.917934,651.556396 
	C1.946574,627.403381 1.888829,603.713196 1.917396,579.559814 
	C1.945523,556.071960 1.887338,533.047302 1.913616,509.559265 
	C1.941985,478.736389 1.885889,448.376862 1.909004,417.553375 
	C1.935705,391.730835 1.883195,366.372253 1.906652,340.549622 
	C2.001903,282.699158 2.022301,225.312714 2.031260,167.926270 
	C2.031415,166.934799 1.893595,165.943298 1.867524,164.488434 
	C1.956363,148.811447 2.026420,133.597794 1.993463,118.384354 
	C1.990295,116.922195 1.346436,115.461418 1.000000,114.000000 
	C1.000000,109.310745 1.000000,104.621490 1.402202,99.287689 
	C2.198345,82.165619 2.476240,65.683899 3.071109,49.213619 
	C3.212692,45.293571 3.728725,41.119007 5.247332,37.563255 
	C11.728128,22.388742 22.653595,11.398636 37.926117,4.959047 
	C40.329185,3.945805 42.999329,3.206595 45.587486,3.056568 
	C54.726540,2.526807 63.885105,2.341471 73.032249,1.934951 
	C74.366051,1.875674 75.677963,1.323890 77.000000,1.000000 
	C79.041664,1.000000 81.083336,1.000000 83.734947,1.405444 
	C93.544823,1.813161 102.744751,1.815433 112.410400,1.902065 
	C121.900963,1.943270 130.925812,1.900116 140.417770,1.927098 
	C150.232315,1.953791 159.579773,1.910346 169.397278,1.924990 
	C220.222061,1.953208 270.576813,1.923336 321.406006,1.931472 
	C351.243683,1.968440 380.606873,1.967400 410.440491,1.976757 
	C438.547577,1.990898 466.184296,2.012542 493.820831,1.955582 
	C495.547852,1.952022 497.273651,1.332788 499.000000,0.999997 
	C519.354248,1.000000 539.708435,1.000000 560.527161,1.366974 
	C568.781494,7.027099 577.287964,11.525360 584.217651,17.772640 
	C600.533997,32.482288 616.344238,47.779198 631.914124,63.285492 
	C662.234253,93.481895 692.132812,124.101715 722.461304,154.289658 
	C731.600281,163.386230 735.141724,173.944305 735.116821,186.601074 
	C735.068420,211.243347 735.669250,235.887192 736.065369,260.529327 
	C736.089355,262.024200 736.675476,263.509979 737.000000,265.000000 
	C737.000000,270.688049 737.000000,276.376068 736.589600,282.696167 
	C736.172180,293.883270 736.165222,304.438354 736.083130,315.457153 
	C736.064941,327.936188 736.121826,339.951538 736.090332,352.430206 
	C736.058411,399.588165 736.114746,446.282745 736.090088,493.436646 
	C736.008179,553.016602 736.000183,612.137268 736.007996,671.257935 
	C736.019653,759.854065 736.042358,848.450256 735.945068,937.380005 
	C734.495361,940.564880 733.177429,943.424011 731.823425,946.265991 
	C726.490356,957.460205 718.832764,966.789062 708.475281,973.563782 
	C704.879517,975.915833 700.382874,977.993591 696.209656,978.175232 
	C674.132324,979.136719 652.026489,979.434937 629.932373,980.032410 
	C628.280701,980.077087 626.643799,980.664734 625.000000,981.000000 
	C620.643127,981.000000 616.286194,981.000000 611.293945,980.593445 
	C600.779663,980.180420 590.900818,980.173950 580.557129,980.093506 
	C569.414001,980.079163 558.735718,980.138977 547.593018,980.107666 
	C528.107361,980.074097 509.085999,980.131592 489.597473,980.107056 
	C470.441559,980.054871 451.752838,980.084778 432.594299,980.059448 
	C413.102325,980.033264 394.080170,980.062195 374.586670,980.060303 
	C348.083710,980.026855 322.052124,980.024414 295.550629,980.014343 
	C268.946625,980.005310 242.812469,979.983154 216.678513,980.045410 
	C214.784943,980.049927 212.892807,980.667542 211.000000,981.000000 
M290.500214,41.335907 
	C267.998901,41.371803 245.497391,41.361736 222.996292,41.452705 
	C167.834442,41.675713 112.672615,41.916176 57.511154,42.218655 
	C45.199722,42.286167 44.517380,42.840843 43.997326,55.116512 
	C43.193428,74.092117 42.293018,93.080475 42.209476,112.066841 
	C41.845741,194.731888 41.568245,277.398285 41.617374,360.063965 
	C41.723663,538.895874 42.027534,717.727722 42.334835,896.559387 
	C42.355434,908.549500 43.182743,920.536377 43.430237,932.528992 
	C43.530205,937.373108 45.621017,939.134460 50.429802,939.201904 
	C82.248894,939.648376 114.064674,940.759705 145.882507,940.795471 
	C325.381012,940.997375 504.879791,940.956482 684.378479,940.997986 
	C691.659973,940.999695 693.794861,939.377991 694.079529,931.834229 
	C694.858337,911.190491 695.744263,890.533691 695.765930,869.881226 
	C695.996765,650.049194 696.068298,430.216980 696.171936,210.384842 
	C696.172607,208.960114 696.009705,207.535324 695.911926,205.925232 
	C693.891724,205.925232 692.243774,205.925964 690.595825,205.925140 
	C658.929565,205.909317 627.261719,206.076385 595.597717,205.800537 
	C579.621582,205.661377 563.624084,205.116867 547.691895,203.977417 
	C539.423584,203.386093 535.284119,198.775772 533.990173,190.501144 
	C532.964111,183.939835 532.210327,177.263977 532.163940,170.633194 
	C531.876038,129.468704 531.821838,88.302567 531.691223,47.136978 
	C531.685120,45.206463 531.690430,43.275917 531.690430,41.335915 
	C451.143402,41.335915 371.321838,41.335915 290.500214,41.335907 
M659.836487,147.663254 
	C631.760254,119.461983 603.203308,91.765656 574.095703,64.647728 
	C573.651672,64.890610 573.207581,65.133484 572.763550,65.376366 
	C572.763550,98.387009 572.763550,131.397644 572.763550,164.836288 
	C607.148987,164.824951 640.883057,165.832550 674.596008,164.618057 
	C675.106567,163.717453 675.617126,162.816864 676.127686,161.916275 
	C670.863831,157.332169 665.599976,152.748062 659.836487,147.663254 
z"/>
<path fill="#FEFEFE" opacity="1.000000" stroke="none" 
	d="
M737.000000,264.531342 
	C736.675476,263.509979 736.089355,262.024200 736.065369,260.529327 
	C735.669250,235.887192 735.068420,211.243347 735.116821,186.601074 
	C735.141724,173.944305 731.600281,163.386230 722.461304,154.289658 
	C692.132812,124.101715 662.234253,93.481895 631.914124,63.285492 
	C616.344238,47.779198 600.533997,32.482288 584.217651,17.772640 
	C577.287964,11.525360 568.781494,7.027099 560.995850,1.366974 
	C619.608276,1.000000 678.216553,1.000000 737.000000,1.000000 
	C737.000000,88.687485 737.000000,176.375076 737.000000,264.531342 
z"/>
<path fill="#FDFDFD" opacity="1.000000" stroke="none" 
	d="
M1.828294,710.014709 
	C1.883105,717.671204 1.978707,725.327637 1.986346,732.984192 
	C2.054299,801.090881 2.079605,869.197693 2.259916,937.304077 
	C2.267346,940.110657 3.225478,943.151001 4.528553,945.675720 
	C9.388818,955.092712 16.048389,963.093201 24.253893,969.870300 
	C31.825369,976.123779 40.177483,979.998169 50.168278,979.880310 
	C52.991398,979.847046 55.817760,980.088867 58.821320,980.602295 
	C39.692406,981.000000 20.384809,981.000000 1.000000,981.000000 
	C1.000000,890.979126 1.000000,800.958191 1.206830,710.486023 
	C1.413660,710.034729 1.828294,710.014709 1.828294,710.014709 
z"/>
<path fill="#FBFBFB" opacity="1.000000" stroke="none" 
	d="
M76.531342,1.000000 
	C75.677963,1.323890 74.366051,1.875674 73.032249,1.934951 
	C63.885105,2.341471 54.726540,2.526807 45.587486,3.056568 
	C42.999329,3.206595 40.329185,3.945805 37.926117,4.959047 
	C22.653595,11.398636 11.728128,22.388742 5.247332,37.563255 
	C3.728725,41.119007 3.212692,45.293571 3.071109,49.213619 
	C2.476240,65.683899 2.198345,82.165619 1.402202,98.821579 
	C1.000000,66.415665 1.000000,33.831333 1.000000,1.000000 
	C26.020353,1.000000 51.041519,1.000000 76.531342,1.000000 
z"/>
<path fill="#FBFBFB" opacity="1.000000" stroke="none" 
	d="
M625.468628,981.000000 
	C626.643799,980.664734 628.280701,980.077087 629.932373,980.032410 
	C652.026489,979.434937 674.132324,979.136719 696.209656,978.175232 
	C700.382874,977.993591 704.879517,975.915833 708.475281,973.563782 
	C718.832764,966.789062 726.490356,957.460205 731.823425,946.265991 
	C733.177429,943.424011 734.495361,940.564880 736.177979,937.327087 
	C736.526062,936.940491 737.000000,937.000000 737.000000,937.000000 
	C737.000000,951.625427 737.000000,966.250854 737.000000,981.000000 
	C699.979187,981.000000 662.958252,981.000000 625.468628,981.000000 
z"/>
<path fill="#888888" opacity="1.000000" stroke="none" 
	d="
M737.000000,936.536133 
	C737.000000,937.000000 736.526062,936.940491 736.293213,936.993408 
	C736.042358,848.450256 736.019653,759.854065 736.007996,671.257935 
	C736.000183,612.137268 736.008179,553.016602 736.297485,493.435913 
	C736.585938,492.975891 737.000000,493.000000 737.000000,493.000000 
	C737.000000,640.690735 737.000000,788.381531 737.000000,936.536133 
z"/>
<path fill="#8E8E8E" opacity="1.000000" stroke="none" 
	d="
M1.820157,164.951813 
	C1.893595,165.943298 2.031415,166.934799 2.031260,167.926270 
	C2.022301,225.312714 2.001903,282.699158 1.698916,340.550232 
	C1.415214,341.014832 1.000000,341.000000 1.000000,341.000000 
	C1.000000,282.645782 1.000000,224.291550 1.203772,165.435043 
	C1.407544,164.932770 1.820157,164.951813 1.820157,164.951813 
z"/>
<path fill="#3A3A3A" opacity="1.000000" stroke="none" 
	d="
M320.931549,1.893464 
	C270.576813,1.923336 220.222061,1.953208 169.424774,1.709254 
	C168.982208,1.435428 169.000000,1.000000 169.000000,1.000000 
	C219.354233,1.000000 269.708466,1.000000 320.519287,1.223754 
	C320.975891,1.447509 320.931549,1.893464 320.931549,1.893464 
z"/>
<path fill="#999999" opacity="1.000000" stroke="none" 
	d="
M737.000000,492.531342 
	C737.000000,493.000000 736.585938,492.975891 736.378540,492.976624 
	C736.114746,446.282745 736.058411,399.588165 736.296326,352.422913 
	C736.590637,351.952271 737.000000,352.000000 737.000000,352.000000 
	C737.000000,398.687561 737.000000,445.375122 737.000000,492.531342 
z"/>
<path fill="#A7A7A7" opacity="1.000000" stroke="none" 
	d="
M1.829793,418.017303 
	C1.885889,448.376862 1.941985,478.736389 1.706033,509.564453 
	C1.413986,510.032990 1.000000,510.000000 1.000000,510.000000 
	C1.000000,479.645782 1.000000,449.291534 1.207323,418.479004 
	C1.414646,418.020721 1.829793,418.017303 1.829793,418.017303 
z"/>
<path fill="#111111" opacity="1.000000" stroke="none" 
	d="
M498.531342,0.999997 
	C497.273651,1.332788 495.547852,1.952022 493.820831,1.955582 
	C466.184296,2.012542 438.547577,1.990898 410.451843,1.735462 
	C409.992767,1.483770 410.000000,1.000000 410.000000,1.000000 
	C439.354218,1.000000 468.708466,1.000000 498.531342,0.999997 
z"/>
<path fill="#222222" opacity="1.000000" stroke="none" 
	d="
M409.531342,1.000000 
	C410.000000,1.000000 409.992767,1.483770 409.981445,1.725065 
	C380.606873,1.967400 351.243683,1.968440 321.406006,1.931472 
	C320.931549,1.893464 320.975891,1.447509 320.987946,1.223754 
	C350.354218,1.000000 379.708466,1.000000 409.531342,1.000000 
z"/>
<path fill="#111111" opacity="1.000000" stroke="none" 
	d="
M211.468658,981.000000 
	C212.892807,980.667542 214.784943,980.049927 216.678513,980.045410 
	C242.812469,979.983154 268.946625,980.005310 295.540955,980.258667 
	C296.001190,980.510559 296.000000,981.000000 296.000000,981.000000 
	C267.979095,981.000000 239.958206,981.000000 211.468658,981.000000 
z"/>
<path fill="#222222" opacity="1.000000" stroke="none" 
	d="
M296.468658,981.000000 
	C296.000000,981.000000 296.001190,980.510559 296.010864,980.266235 
	C322.052124,980.024414 348.083710,980.026855 374.565643,980.286682 
	C375.015961,980.544006 375.000000,981.000000 375.000000,981.000000 
	C348.979095,981.000000 322.958221,981.000000 296.468658,981.000000 
z"/>
<path fill="#999999" opacity="1.000000" stroke="none" 
	d="
M1.909004,417.553375 
	C1.829793,418.017303 1.414646,418.020721 1.207323,418.010376 
	C1.000000,392.645782 1.000000,367.291534 1.000000,341.468658 
	C1.000000,341.000000 1.415214,341.014832 1.622950,341.014221 
	C1.883195,366.372253 1.935705,391.730835 1.909004,417.553375 
z"/>
<path fill="#D4D4D4" opacity="1.000000" stroke="none" 
	d="
M1.831084,580.023010 
	C1.888829,603.713196 1.946574,627.403381 1.709707,651.566284 
	C1.415094,652.039062 1.000000,652.000000 1.000000,652.000000 
	C1.000000,628.312439 1.000000,604.624878 1.207392,580.488037 
	C1.414784,580.038818 1.831084,580.023010 1.831084,580.023010 
z"/>
<path fill="#BDBDBD" opacity="1.000000" stroke="none" 
	d="
M1.917396,579.559814 
	C1.831084,580.023010 1.414784,580.038818 1.207392,580.019409 
	C1.000000,556.979126 1.000000,533.958191 1.000000,510.468658 
	C1.000000,510.000000 1.413986,510.032990 1.621569,510.027771 
	C1.887338,533.047302 1.945523,556.071960 1.917396,579.559814 
z"/>
<path fill="#111111" opacity="1.000000" stroke="none" 
	d="
M119.938835,980.042114 
	C139.459641,980.028931 158.980438,980.010010 178.501236,980.019836 
	C179.472183,980.020325 180.443008,980.270081 181.706940,980.701904 
	C161.645767,981.000000 141.291550,981.000000 120.466423,980.759705 
	C119.995529,980.519409 119.938835,980.042114 119.938835,980.042114 
z"/>
<path fill="#3A3A3A" opacity="1.000000" stroke="none" 
	d="
M375.468658,981.000000 
	C375.000000,981.000000 375.015961,980.544006 375.036987,980.317627 
	C394.080170,980.062195 413.102325,980.033264 432.565796,980.279724 
	C433.007172,980.555115 433.000000,981.000000 433.000000,981.000000 
	C413.979095,981.000000 394.958221,981.000000 375.468658,981.000000 
z"/>
<path fill="#7F7F7F" opacity="1.000000" stroke="none" 
	d="
M490.064667,980.189087 
	C509.085999,980.131592 528.107361,980.074097 547.584717,980.308411 
	C548.040833,980.600220 548.000000,981.000000 548.000000,981.000000 
	C528.979126,981.000000 509.958221,981.000000 490.484680,980.797241 
	C490.032013,980.594543 490.064667,980.189087 490.064667,980.189087 
z"/>
<path fill="#EBEBEB" opacity="1.000000" stroke="none" 
	d="
M1.000000,652.468628 
	C1.000000,652.000000 1.415094,652.039062 1.623321,652.029114 
	C1.886939,671.042419 1.942329,690.065735 1.913007,709.551880 
	C1.828294,710.014709 1.413660,710.034729 1.206830,710.017334 
	C1.000000,690.979126 1.000000,671.958191 1.000000,652.468628 
z"/>
<path fill="#5D5D5D" opacity="1.000000" stroke="none" 
	d="
M489.597473,980.107056 
	C490.064667,980.189087 490.032013,980.594543 490.015991,980.797241 
	C471.312439,981.000000 452.624878,981.000000 433.468658,981.000000 
	C433.000000,981.000000 433.007172,980.555115 433.035645,980.334839 
	C451.752838,980.084778 470.441559,980.054871 489.597473,980.107056 
z"/>
<path fill="#B5B5B5" opacity="1.000000" stroke="none" 
	d="
M1.867524,164.488434 
	C1.820157,164.951813 1.407544,164.932770 1.203772,164.966385 
	C1.000000,148.312439 1.000000,131.624878 1.000000,114.468658 
	C1.346436,115.461418 1.990295,116.922195 1.993463,118.384354 
	C2.026420,133.597794 1.956363,148.811447 1.867524,164.488434 
z"/>
<path fill="#B5B5B5" opacity="1.000000" stroke="none" 
	d="
M737.000000,351.531342 
	C737.000000,352.000000 736.590637,351.952271 736.384644,351.959564 
	C736.121826,339.951538 736.064941,327.936188 736.293579,315.456055 
	C736.579163,314.991272 737.000000,315.000000 737.000000,315.000000 
	C737.000000,327.020905 737.000000,339.041779 737.000000,351.531342 
z"/>
<path fill="#A7A7A7" opacity="1.000000" stroke="none" 
	d="
M548.468628,981.000000 
	C548.000000,981.000000 548.040833,980.600220 548.049133,980.399536 
	C558.735718,980.138977 569.414001,980.079163 580.550293,980.301514 
	C581.008240,980.583679 581.000000,981.000000 581.000000,981.000000 
	C570.312439,981.000000 559.624878,981.000000 548.468628,981.000000 
z"/>
<path fill="#BDBDBD" opacity="1.000000" stroke="none" 
	d="
M737.000000,314.531342 
	C737.000000,315.000000 736.579163,314.991272 736.368713,314.992371 
	C736.165222,304.438354 736.172180,293.883270 736.589600,283.164093 
	C737.000000,293.354218 737.000000,303.708466 737.000000,314.531342 
z"/>
<path fill="#BDBDBD" opacity="1.000000" stroke="none" 
	d="
M581.468628,981.000000 
	C581.000000,981.000000 581.008240,980.583679 581.015076,980.375610 
	C590.900818,980.173950 600.779663,980.180420 610.829285,980.593445 
	C601.312439,981.000000 591.624878,981.000000 581.468628,981.000000 
z"/>
<path fill="#5D5D5D" opacity="1.000000" stroke="none" 
	d="
M168.531342,1.000000 
	C169.000000,1.000000 168.982208,1.435428 168.954712,1.651164 
	C159.579773,1.910346 150.232315,1.953791 140.438950,1.713399 
	C139.993027,1.429563 140.000000,1.000000 140.000000,1.000000 
	C149.354233,1.000000 158.708450,1.000000 168.531342,1.000000 
z"/>
<path fill="#A7A7A7" opacity="1.000000" stroke="none" 
	d="
M111.944679,1.817705 
	C102.744751,1.815433 93.544823,1.813161 84.172447,1.405444 
	C93.020897,1.000000 102.041786,1.000000 111.515915,1.204319 
	C111.969147,1.408637 111.944679,1.817705 111.944679,1.817705 
z"/>
<path fill="#7F7F7F" opacity="1.000000" stroke="none" 
	d="
M112.410400,1.902065 
	C111.944679,1.817705 111.969147,1.408637 111.984573,1.204319 
	C121.020897,1.000000 130.041794,1.000000 139.531342,1.000000 
	C140.000000,1.000000 139.993027,1.429563 139.971848,1.643262 
	C130.925812,1.900116 121.900963,1.943270 112.410400,1.902065 
z"/>
<path fill="#3A3A3A" opacity="1.000000" stroke="none" 
	d="
M119.476013,980.038818 
	C119.938835,980.042114 119.995529,980.519409 119.997765,980.759705 
	C111.312439,981.000000 102.624870,981.000000 93.468658,981.000000 
	C95.861885,980.656921 98.718353,980.086731 101.586777,980.018372 
	C107.392143,979.880066 113.204010,980.013916 119.476013,980.038818 
z"/>
<path fill="#FFFFFF" opacity="1.000000" stroke="none" 
	d="
M291.000244,41.335911 
	C371.321838,41.335915 451.143402,41.335915 531.690430,41.335915 
	C531.690430,43.275917 531.685120,45.206463 531.691223,47.136978 
	C531.821838,88.302567 531.876038,129.468704 532.163940,170.633194 
	C532.210327,177.263977 532.964111,183.939835 533.990173,190.501144 
	C535.284119,198.775772 539.423584,203.386093 547.691895,203.977417 
	C563.624084,205.116867 579.621582,205.661377 595.597717,205.800537 
	C627.261719,206.076385 658.929565,205.909317 690.595825,205.925140 
	C692.243774,205.925964 693.891724,205.925232 695.911926,205.925232 
	C696.009705,207.535324 696.172607,208.960114 696.171936,210.384842 
	C696.068298,430.216980 695.996765,650.049194 695.765930,869.881226 
	C695.744263,890.533691 694.858337,911.190491 694.079529,931.834229 
	C693.794861,939.377991 691.659973,940.999695 684.378479,940.997986 
	C504.879791,940.956482 325.381012,940.997375 145.882507,940.795471 
	C114.064674,940.759705 82.248894,939.648376 50.429802,939.201904 
	C45.621017,939.134460 43.530205,937.373108 43.430237,932.528992 
	C43.182743,920.536377 42.355434,908.549500 42.334835,896.559387 
	C42.027534,717.727722 41.723663,538.895874 41.617374,360.063965 
	C41.568245,277.398285 41.845741,194.731888 42.209476,112.066841 
	C42.293018,93.080475 43.193428,74.092117 43.997326,55.116512 
	C44.517380,42.840843 45.199722,42.286167 57.511154,42.218655 
	C112.672615,41.916176 167.834442,41.675713 222.996292,41.452705 
	C245.497391,41.361736 267.998901,41.371803 291.000244,41.335911 
M524.500122,818.256104 
	C546.982849,817.862244 569.468384,817.583496 591.946838,817.017639 
	C600.885681,816.792603 606.572693,811.602478 608.594604,802.748230 
	C611.160583,791.511292 604.755005,782.261353 593.423828,780.873840 
	C590.617676,780.530151 587.806946,780.072937 584.989380,779.996521 
	C564.010986,779.427246 543.031433,778.558167 522.050171,778.496521 
	C443.243073,778.265076 364.435211,778.293152 285.627625,778.248840 
	C239.474640,778.222961 193.321594,778.235352 147.168640,778.277771 
	C145.406982,778.279358 142.981003,778.135864 142.001419,779.153870 
	C138.112961,783.195068 133.905441,787.245300 131.236908,792.076904 
	C126.080132,801.413635 133.076309,817.107239 146.158600,817.025879 
	C156.310974,816.962708 166.467163,817.898621 176.622910,817.926208 
	C262.758514,818.160278 348.894409,818.317078 435.030304,818.431274 
	C464.520172,818.470398 494.010284,818.322632 524.500122,818.256104 
M363.500000,653.998840 
	C337.339813,654.010620 311.178864,653.897156 285.019653,654.062073 
	C239.869873,654.346680 194.720764,654.760437 149.572388,655.221313 
	C138.751999,655.331726 132.465973,660.093567 130.332718,669.666748 
	C128.937881,675.926147 129.929184,681.818970 133.906189,687.163452 
	C137.764160,692.347961 142.391846,694.215881 149.096680,694.205750 
	C295.393799,693.984436 441.691528,693.948364 587.988281,694.273743 
	C596.117371,694.291809 601.206787,691.081482 605.672913,685.567871 
	C610.571289,679.520569 609.426575,672.615662 606.798462,666.147278 
	C604.360779,660.147644 600.021606,655.917786 592.907532,655.723877 
	C586.580078,655.551514 580.255798,655.134827 573.928589,655.098816 
	C504.119232,654.701416 434.309570,654.357361 363.500000,653.998840 
M289.618591,386.096375 
	C238.949783,423.875183 230.313660,490.650879 269.601685,537.638855 
	C310.290161,586.301697 364.342346,579.288757 398.495392,553.230713 
	C403.677460,549.276855 408.431427,544.217041 411.941681,538.744141 
	C417.276672,530.426270 415.348358,520.899841 408.472321,514.735962 
	C401.159882,508.180756 391.963959,507.444427 383.715271,513.044312 
	C380.704895,515.088013 378.024750,517.637878 375.290527,520.065552 
	C349.193970,543.236572 306.920593,534.832886 291.908966,503.341583 
	C284.224426,487.221100 283.682953,470.260284 287.171661,453.060944 
	C294.995422,414.489716 341.595673,394.089508 374.331818,421.511230 
	C376.882629,423.647949 379.451508,425.784180 382.169952,427.696045 
	C394.212128,436.165314 409.000580,430.337097 412.319122,415.948029 
	C414.501831,406.483856 410.678162,399.153015 403.747742,393.459229 
	C370.412567,366.072327 328.885681,358.670410 289.618591,386.096375 
M481.995209,394.481140 
	C480.115784,390.784119 478.445038,386.961731 476.314667,383.415497 
	C471.502747,375.405731 460.048798,372.246368 451.768921,376.346252 
	C444.087036,380.150085 437.910339,392.971008 441.324707,400.824097 
	C450.452881,421.819092 458.317261,443.359192 467.137482,464.493378 
	C480.942535,497.571808 495.169830,530.473755 509.103271,563.498962 
	C512.214600,570.873474 518.038391,573.464050 525.376465,573.465698 
	C532.668945,573.467285 538.740234,571.073792 541.841492,563.728394 
	C543.131348,560.673340 544.808777,557.780151 546.065308,554.713135 
	C561.416992,517.242676 576.970520,479.851746 591.922424,442.222015 
	C598.099304,426.676636 603.141052,410.666443 608.254333,394.725006 
	C609.177673,391.846375 608.978333,387.657104 607.489929,385.142853 
	C603.793030,378.898041 597.940002,374.768005 590.412109,374.549011 
	C583.182861,374.338745 577.017761,376.981903 573.394470,383.763641 
	C571.518494,387.274963 569.619324,390.801971 568.114075,394.478821 
	C555.035645,426.424652 542.047607,458.407501 529.019165,490.373840 
	C528.143372,492.522675 527.156677,494.626373 525.758789,497.802582 
	C522.425720,490.442719 519.543518,484.461914 516.978149,478.348145 
	C505.355896,450.650177 493.822998,422.914673 481.995209,394.481140 
z"/>
<path fill="#FDFDFD" opacity="1.000000" stroke="none" 
	d="
M660.086304,147.913605 
	C665.599976,152.748062 670.863831,157.332169 676.127686,161.916275 
	C675.617126,162.816864 675.106567,163.717453 674.596008,164.618057 
	C640.883057,165.832550 607.148987,164.824951 572.763550,164.836288 
	C572.763550,131.397644 572.763550,98.387009 572.763550,65.376366 
	C573.207581,65.133484 573.651672,64.890610 574.095703,64.647728 
	C603.203308,91.765656 631.760254,119.461983 660.086304,147.913605 
z"/>
<path fill="#020202" opacity="1.000000" stroke="none" 
	d="
M524.000244,818.258179 
	C494.010284,818.322632 464.520172,818.470398 435.030304,818.431274 
	C348.894409,818.317078 262.758514,818.160278 176.622910,817.926208 
	C166.467163,817.898621 156.310974,816.962708 146.158600,817.025879 
	C133.076309,817.107239 126.080132,801.413635 131.236908,792.076904 
	C133.905441,787.245300 138.112961,783.195068 142.001419,779.153870 
	C142.981003,778.135864 145.406982,778.279358 147.168640,778.277771 
	C193.321594,778.235352 239.474640,778.222961 285.627625,778.248840 
	C364.435211,778.293152 443.243073,778.265076 522.050171,778.496521 
	C543.031433,778.558167 564.010986,779.427246 584.989380,779.996521 
	C587.806946,780.072937 590.617676,780.530151 593.423828,780.873840 
	C604.755005,782.261353 611.160583,791.511292 608.594604,802.748230 
	C606.572693,811.602478 600.885681,816.792603 591.946838,817.017639 
	C569.468384,817.583496 546.982849,817.862244 524.000244,818.258179 
z"/>
<path fill="#010101" opacity="1.000000" stroke="none" 
	d="
M364.000000,653.998840 
	C434.309570,654.357361 504.119232,654.701416 573.928589,655.098816 
	C580.255798,655.134827 586.580078,655.551514 592.907532,655.723877 
	C600.021606,655.917786 604.360779,660.147644 606.798462,666.147278 
	C609.426575,672.615662 610.571289,679.520569 605.672913,685.567871 
	C601.206787,691.081482 596.117371,694.291809 587.988281,694.273743 
	C441.691528,693.948364 295.393799,693.984436 149.096680,694.205750 
	C142.391846,694.215881 137.764160,692.347961 133.906189,687.163452 
	C129.929184,681.818970 128.937881,675.926147 130.332718,669.666748 
	C132.465973,660.093567 138.751999,655.331726 149.572388,655.221313 
	C194.720764,654.760437 239.869873,654.346680 285.019653,654.062073 
	C311.178864,653.897156 337.339813,654.010620 364.000000,653.998840 
z"/>
<path fill="#020202" opacity="1.000000" stroke="none" 
	d="
M289.928772,385.917786 
	C328.885681,358.670410 370.412567,366.072327 403.747742,393.459229 
	C410.678162,399.153015 414.501831,406.483856 412.319122,415.948029 
	C409.000580,430.337097 394.212128,436.165314 382.169952,427.696045 
	C379.451508,425.784180 376.882629,423.647949 374.331818,421.511230 
	C341.595673,394.089508 294.995422,414.489716 287.171661,453.060944 
	C283.682953,470.260284 284.224426,487.221100 291.908966,503.341583 
	C306.920593,534.832886 349.193970,543.236572 375.290527,520.065552 
	C378.024750,517.637878 380.704895,515.088013 383.715271,513.044312 
	C391.963959,507.444427 401.159882,508.180756 408.472321,514.735962 
	C415.348358,520.899841 417.276672,530.426270 411.941681,538.744141 
	C408.431427,544.217041 403.677460,549.276855 398.495392,553.230713 
	C364.342346,579.288757 310.290161,586.301697 269.601685,537.638855 
	C230.313660,490.650879 238.949783,423.875183 289.928772,385.917786 
z"/>
<path fill="#020202" opacity="1.000000" stroke="none" 
	d="
M482.126587,394.836914 
	C493.822998,422.914673 505.355896,450.650177 516.978149,478.348145 
	C519.543518,484.461914 522.425720,490.442719 525.758789,497.802582 
	C527.156677,494.626373 528.143372,492.522675 529.019165,490.373840 
	C542.047607,458.407501 555.035645,426.424652 568.114075,394.478821 
	C569.619324,390.801971 571.518494,387.274963 573.394470,383.763641 
	C577.017761,376.981903 583.182861,374.338745 590.412109,374.549011 
	C597.940002,374.768005 603.793030,378.898041 607.489929,385.142853 
	C608.978333,387.657104 609.177673,391.846375 608.254333,394.725006 
	C603.141052,410.666443 598.099304,426.676636 591.922424,442.222015 
	C576.970520,479.851746 561.416992,517.242676 546.065308,554.713135 
	C544.808777,557.780151 543.131348,560.673340 541.841492,563.728394 
	C538.740234,571.073792 532.668945,573.467285 525.376465,573.465698 
	C518.038391,573.464050 512.214600,570.873474 509.103271,563.498962 
	C495.169830,530.473755 480.942535,497.571808 467.137482,464.493378 
	C458.317261,443.359192 450.452881,421.819092 441.324707,400.824097 
	C437.910339,392.971008 444.087036,380.150085 451.768921,376.346252 
	C460.048798,372.246368 471.502747,375.405731 476.314667,383.415497 
	C478.445038,386.961731 480.115784,390.784119 482.126587,394.836914 
z"/>
</svg>